{"title":"Sin City A Dame to Kill For 2014 3D 1080p BluRay x264 SPRiNTER D","uid":11411966,"size":8562427074,"categoryP":"video","categoryS":"3d","magnet":"?xt=urn:btih:d4d399a8a784f790a001d30096b67e56a599aeed&amp;dn=Sin+City+A+Dame+to+Kill+For+2014+3D+1080p+BluRay+x264+SPRiNTER+D&amp;tr=udp%3A%2F%2Ftracker.openbittorrent.com%3A80&amp;tr=udp%3A%2F%2Fopen.demonii.com%3A1337&amp;tr=udp%3A%2F%2Ftracker.coppersurfer.tk%3A6969&amp;tr=udp%3A%2F%2Fexodus.desync.com%3A6969","seeders":2,"leechers":1,"uploader":"Alemao99","files":5,"time":1415541952,"description":"Sin City: A Dame Fatal is based on three stories from Frank Miller and has elements of Just Another Saturday Night (Just Another Saturday Night), plus two new stories, one titled The Long Bad Night. Inside the gloomy Sin City, Dwight (Josh Brolin) is sought by the only woman he ever loved, Ava Lord (Eva Green), while Nancy (Jessica Alba) tries to cope with the death of Hartigan (Bruce Willis). The plot takes place before The Big Fat Kill (present in Sin City - Sin City) and explains how Dwight came to have a dramatically different face.\n\nTitle in Portuguese: Sin City A Dame Fatal\nOriginal title: Sin City A Dame To Kill For\nCountry of Origin: United States\nGenre: Crime | Thriller\nRun Time: 1 hours and 42 minutes\nDirector: Robert Rodriguez\nRelease Year: 2014\nIMDB Link: http://www.imdb.com/title/tt0458481/\n\nSize: 7.97 GB\nFile extension: .MKV\nVideo Quality: Blu-Ray - 3D\nVideo codec: H.264 / AVC\nAudio Codec: AC3 5.1 / DTS 5.1\nResolution: 1920 x 1040\nAudio Language: Portuguese / English\nSubtitles: Portuguese\n\nScreens:\ni.imgur.com/TcWlIPG.jpg\ni.imgur.com/0aTFhfS.jpg\n\n\nFormat                                   : Matroska\nFormat version                           : Version 2\nFile size                                : 7.96 GiB\nDuration                                 : 1h 42mn\nOverall bit rate                         : 11.2 Mbps\nEncoded date                             : UTC 2014-11-05 14:59:32\nWriting application                      : mkvmerge v5.6.0 ('Kenya Kane') built on May 28 2012 06:47:39\nWriting library                          : libebml v1.2.2 + libmatroska v1.3.0\n\nVideo\nID                                       : 1\nFormat                                   : AVC\nFormat/Info                              : Advanced Video Codec\nFormat profile                           : &lt;a class=&quot;__cf_email__&quot; href=&quot;/cdn-cgi/l/email-protection&quot; data-cfemail=&quot;e7af8e808fa7abd3c9d6&quot;&gt;[email&amp;#160;protected]&lt;/a&gt;&lt;script cf-hash='f9e31' type=&quot;text/javascript&quot;&gt;\n/* &lt;![CDATA[ */!function(){try{var t=&quot;currentScript&quot;in document?document.currentScript:function(){for(var t=document.getElementsByTagName(&quot;script&quot;),e=t.length;e--;)if(t[e].getAttribute(&quot;cf-hash&quot;))return t[e]}();if(t&amp;&amp;t.previousSibling){var e,r,n,i,c=t.previousSibling,a=c.getAttribute(&quot;data-cfemail&quot;);if(a){for(e=&quot;&quot;,r=parseInt(a.substr(0,2),16),n=2;a.length-n;n+=2)i=parseInt(a.substr(n,2),16)^r,e+=String.fromCharCode(i);e=document.createTextNode(e),c.parentNode.replaceChild(e,c)}}}catch(u){}}();/* ]]&gt; */&lt;/script&gt;\nFormat settings, CABAC                   : Yes\nFormat settings, ReFrames                : 4 frames\nMuxing mode                              : Header stripping\nCodec ID                                 : V_MPEG4/ISO/AVC\nDuration                                 : 1h 42mn\nBit rate                                 : 9 212 Kbps\nWidth                                    : 1 920 pixels\nHeight                                   : 1 040 pixels\nDisplay aspect ratio                     : 1.85:1\nFrame rate                               : 23.976 fps\nColor space                              : YUV\nChroma subsampling                       : 4:2:0\nBit depth                                : 8 bits\nScan type                                : Progressive\nBits/(Pixel*Frame)                       : 0.192\nStream size                              : 6.41 GiB (80%)\nWriting library                          : x264 core 142 r2479 dd79a61\nEncoding settings                        : cabac=1 / ref=4 / deblock=1:0:0 / analyse=0x3:0x133 / me=umh / subme=7 / psy=1 / psy_rd=1.00:0.00 / mixed_ref=1 / me_range=16 / chroma_me=1 / trellis=1 / 8x8dct=1 / cqm=0 / deadzone=21,11 / fast_pskip=0 / chroma_qp_offset=-2 / threads=12 / lookahead_threads=2 / sliced_threads=0 / nr=0 / decimate=1 / interlaced=0 / bluray_compat=0 / constrained_intra=0 / bframes=3 / b_pyramid=2 / b_adapt=1 / b_bias=0 / direct=1 / weightb=1 / open_gop=0 / weightp=2 / keyint=250 / keyint_min=23 / scenecut=40 / intra_refresh=0 / rc_lookahead=40 / rc=2pass / mbtree=1 / bitrate=9212 / ratetol=1.0 / qcomp=0.60 / qpmin=0 / qpmax=69 / qpstep=4 / cplxblur=20.0 / qblur=0.5 / ip_ratio=1.40 / aq=1:1.00\nLanguage                                 : English\nDefault                                  : Yes\nForced                                   : No\n\nAudio #1\nID                                       : 2\nFormat                                   : AC-3\nFormat/Info                              : Audio Coding 3\nMode extension                           : CM (complete main)\nFormat settings, Endianness              : Big\nMuxing mode                              : Header stripping\nCodec ID                                 : A_AC3\nDuration                                 : 1h 42mn\nBit rate mode                            : Constant\nBit rate                                 : 448 Kbps\nChannel(s)                               : 6 channels\nChannel positions                        : Front: L C R, Side: L R, LFE\nSampling rate                            : 48.0 KHz\nBit depth                                : 16 bits\nCompression mode                         : Lossy\nStream size                              : 327 MiB (4%)\nLanguage                                 : Portuguese\nDefault                                  : Yes\nForced                                   : Yes\n\nAudio #2\nID                                       : 3\nFormat                                   : DTS\nFormat/Info                              : Digital Theater Systems\nMuxing mode                              : Header stripping\nCodec ID                                 : A_DTS\nDuration                                 : 1h 42mn\nBit rate mode                            : Constant\nBit rate                                 : 1 510 Kbps\nChannel(s)                               : 6 channels\nChannel positions                        : Front: L C R, Side: L R, LFE\nSampling rate                            : 48.0 KHz\nBit depth                                : 24 bits\nCompression mode                         : Lossy\nStream size                              : 1.08 GiB (14%)\nLanguage                                 : English\nDefault                                  : No\nForced                                   : No\n\n\n\nSEED PLEASE\n\nENJOY","torrent":{"xt":"urn:btih:d4d399a8a784f790a001d30096b67e56a599aeed","amp;dn":"Sin+City+A+Dame+to+Kill+For+2014+3D+1080p+BluRay+x264+SPRiNTER+D","amp;tr":["udp%3A%2F%2Ftracker.openbittorrent.com%3A80","udp%3A%2F%2Fopen.demonii.com%3A1337","udp%3A%2F%2Ftracker.coppersurfer.tk%3A6969","udp%3A%2F%2Fexodus.desync.com%3A6969"],"infoHash":"d4d399a8a784f790a001d30096b67e56a599aeed","infoHashBuffer":{"type":"Buffer","data":[212,211,153,168,167,132,247,144,160,1,211,0,150,182,126,86,165,153,174,237]},"announce":[],"urlList":[]}}